<?xml version="1.0" encoding="iso-8859-1"?>
<!-- Generator: Adobe Illustrator 21.0.0, SVG Export Plug-In . SVG Version: 6.00 Build 0)  -->
<svg xmlns="http://www.w3.org/2000/svg" xmlns:xlink="http://www.w3.org/1999/xlink" version="1.1" id="Capa_1" x="0px" y="0px" viewBox="0 0 512 512" style="enable-background:new 0 0 512 512;" xml:space="preserve" width="512" height="512">
<g>
	<path style="fill:#FF00FF;" d="M416.667,512c-30.419,0-55.167-24.748-55.167-55.167c0-13.877-11.29-25.167-25.167-25.167   s-25.167,11.29-25.167,25.167C311.167,487.252,286.419,512,256,512s-55.167-24.748-55.167-55.167   c0-13.877-11.29-25.167-25.167-25.167s-25.167,11.29-25.167,25.167c0,30.419-24.748,55.167-55.167,55.167   c-30.419,0-55.167-24.748-55.167-55.167v-241C40.167,96.783,136.825,0,256,0c119.053,0,215.833,96.66,215.833,215.833v241   C471.833,487.252,447.086,512,416.667,512z"/>
	<path style="fill:#A000A0;" d="M311.167,456.833c0-13.877,11.29-25.167,25.167-25.167s25.167,11.29,25.167,25.167   c0,30.419,24.748,55.167,55.167,55.167c30.419,0,55.167-24.748,55.167-55.167v-241C471.833,96.66,375.053,0,256,0v512   C286.419,512,311.167,487.252,311.167,456.833z"/>
	<path style="fill:#CDE3FF;" d="M371.417,286.25c-38.828,0-70.417-31.589-70.417-70.417c0-38.828,31.589-70.417,70.417-70.417   c38.828,0,70.417,31.589,70.417,70.417C441.833,254.661,410.245,286.25,371.417,286.25z"/>
	<circle style="fill-rule:evenodd;clip-rule:evenodd;fill:#003280;" cx="396.833" cy="215.833" r="15"/>
	<path style="fill:#CDE3FF;" d="M371.417,286.25c-38.828,0-70.417-31.589-70.417-70.417c0-38.828,31.589-70.417,70.417-70.417   c38.828,0,70.417,31.589,70.417,70.417C441.833,254.661,410.245,286.25,371.417,286.25z"/>
	<circle style="fill-rule:evenodd;clip-rule:evenodd;fill:#003280;" cx="396.833" cy="215.833" r="15"/>
	<path style="fill:#EDF6FF;" d="M185.583,286.25c-38.828,0-70.417-31.589-70.417-70.417c0-38.828,31.589-70.417,70.417-70.417   c38.828,0,70.417,31.589,70.417,70.417C256,254.661,224.411,286.25,185.583,286.25z"/>
	<circle style="fill-rule:evenodd;clip-rule:evenodd;fill:#0064FF;" cx="211" cy="215.833" r="15"/>
</g>















</svg>
